<?xml version="1.0" encoding="UTF-8"?>
<!-- Generator: visioncortex VTracer 0.6.2 -->
<svg version="1.1" xmlns="http://www.w3.org/2000/svg" width="1280" height="1280">
<path d="M0 0 C252.12 0 504.24 0 764 0 C764 37.29 764 74.58 764 113 C549.83 113.33 335.66 113.66 115 114 C115 460.83 115 807.66 115 1165 C176.05 1165 237.1 1165 300 1165 C299.97679687 1143.94445313 299.95359375 1122.88890625 299.9296875 1101.1953125 C299.91947467 1087.89713509 299.90975248 1074.59896008 299.90234375 1061.30078125 C299.89842776 1054.31852204 299.89438673 1047.33626292 299.89013672 1040.35400391 C299.88960922 1039.47884239 299.88908172 1038.60368087 299.88853824 1037.70199931 C299.87983 1023.55703309 299.86405708 1009.41208306 299.84569441 995.26712646 C299.8270181 980.76001861 299.81588809 966.25291927 299.81182301 951.7457999 C299.80907323 942.78783473 299.80037571 933.8299153 299.78416707 924.8719642 C299.77362816 918.73644558 299.77039232 912.60095074 299.77299725 906.46542372 C299.77428339 902.92092814 299.77225604 899.37651272 299.76158905 895.83203125 C299.75013032 891.99664339 299.75400224 888.16136143 299.75949097 884.32595825 C299.75075244 882.63046142 299.75075244 882.63046142 299.74183738 880.90071213 C299.74581948 879.87957853 299.74980158 878.85844492 299.75390434 877.80636787 C299.7531449 876.92010062 299.75238546 876.03383337 299.75160301 875.12070954 C300 873 300 873 302 871 C305.01712711 870.80413363 307.94233305 870.73608578 310.96058846 870.75390434 C311.90500866 870.75159665 312.84942886 870.74928897 313.82246786 870.74691135 C317.0231631 870.74156969 320.22366168 870.75062982 323.42434692 870.75949097 C325.72771212 870.75861975 328.03107713 870.75687033 330.33444107 870.75431263 C336.69202564 870.74981858 343.04954345 870.7578709 349.40711951 870.76786876 C355.55030336 870.77656391 361.69348758 870.77395006 367.83667571 870.77250507 C380.40805452 870.76987381 392.97941236 870.77657318 405.55078506 870.78853989 C418.00296253 870.80036282 430.45513126 870.80806953 442.9073143 870.81024551 C444.06748034 870.81045173 444.06748034 870.81045173 445.25108407 870.81066212 C449.17881121 870.81133876 453.10653835 870.81194154 457.0342655 870.81251587 C484.87424936 870.81671976 512.7142218 870.83020304 540.55419922 870.84912109 C567.60497985 870.86748169 594.65575736 870.88165296 621.70654297 870.89013672 C622.53996312 870.89039977 623.37338326 870.89066282 624.23205856 870.89093385 C632.60139646 870.89357082 640.97073438 870.89612246 649.34007232 870.89861157 C666.39027909 870.90368437 683.44048566 870.90932687 700.49069214 870.91531372 C701.27468038 870.9155883 702.05866862 870.91586288 702.86641408 870.91614578 C726.90273486 870.92459411 750.9390537 870.93545777 774.97537231 870.94869995 C775.65796072 870.94907507 776.34054913 870.94945018 777.04382204 870.94983667 C804.69588225 870.96506941 832.34794093 870.98285577 860 871 C860 819.85 860 768.7 860 716 C675.53 716 491.06 716 301 716 C299.54770691 713.09541382 299.87319543 710.57151788 299.87136555 707.32513428 C299.86961251 706.62781582 299.86785947 705.93049737 299.86605331 705.21204805 C299.86136427 702.85195796 299.86386622 700.4919287 299.86628723 698.13183594 C299.86442072 696.43211695 299.86212067 694.73239838 299.85942191 693.03268051 C299.85327778 688.34360715 299.85344055 683.65455155 299.85461628 678.96547508 C299.85481963 673.91566057 299.8493079 668.86585187 299.84455872 663.81604004 C299.83623757 653.91619877 299.83350323 644.01636345 299.83294634 634.11651897 C299.83247192 626.07405703 299.8304209 618.03159706 299.82724571 609.98913574 C299.81843556 587.21202067 299.81382696 564.43491031 299.81457619 541.65779352 C299.81463612 539.81431463 299.81463612 539.81431463 299.81469727 537.93359375 C299.81473815 536.70311609 299.81477903 535.47263843 299.81482115 534.20487356 C299.81522784 514.2506431 299.80565338 494.29643149 299.7915589 474.34220648 C299.77721738 453.87760758 299.77028747 433.4130179 299.77115268 412.94841385 C299.77148539 401.44928441 299.76870576 389.95017473 299.75797462 378.4510498 C299.74889887 368.66269854 299.74667019 358.87437601 299.75348405 349.08602238 C299.75676398 344.08738286 299.75675326 339.08879855 299.7481308 334.09016418 C299.74032951 329.52079434 299.74163116 324.95152407 299.75041493 320.38215685 C299.7519641 318.72270303 299.75008124 317.06324201 299.74455485 315.40379667 C299.73757523 313.16069635 299.74272409 310.91795319 299.75111103 308.67486572 C299.75078498 306.80029379 299.75078498 306.80029379 299.75045234 304.88785172 C300 302 300 302 302 300 C305.01712711 299.80413363 307.94233305 299.73608578 310.96058846 299.75390434 C311.90500866 299.75159665 312.84942886 299.74928897 313.82246786 299.74691135 C317.0231631 299.74156969 320.22366168 299.75062982 323.42434692 299.75949097 C325.72771212 299.75861975 328.03107713 299.75687033 330.33444107 299.75431263 C336.69202564 299.74981858 343.04954345 299.7578709 349.40711951 299.76786876 C355.55030336 299.77656391 361.69348758 299.77395006 367.83667571 299.77250507 C380.40805452 299.76987381 392.97941236 299.77657318 405.55078506 299.78853989 C418.00296253 299.80036282 430.45513126 299.80806953 442.9073143 299.81024551 C444.06748034 299.81045173 444.06748034 299.81045173 445.25108407 299.81066212 C449.17881121 299.81133876 453.10653835 299.81194154 457.0342655 299.81251587 C484.87424936 299.81671976 512.7142218 299.83020304 540.55419922 299.84912109 C567.60497986 299.86748169 594.65575736 299.88161916 621.70654297 299.89013672 C623.40677599 299.890678 625.10700901 299.89121941 626.80724204 299.89176095 C640.62173665 299.89613831 654.43623136 299.90022354 668.25072609 299.90423791 C732.16716155 299.92302224 796.08356721 299.96316056 860 300 C860 201 860 102 860 0 C996.62 0 1133.24 0 1274 0 C1274 422.4 1274 844.8 1274 1280 C1021.88 1280 769.76 1280 510 1280 C510 1242.71 510 1205.42 510 1167 C512.36499475 1165.81750263 513.77189116 1165.87529324 516.40980399 1165.8758015 C517.34454168 1165.8735542 518.27927937 1165.87130689 519.24234245 1165.86899149 C520.79635868 1165.87293203 520.79635868 1165.87293203 522.38176918 1165.87695217 C523.48023331 1165.87579843 524.57869743 1165.87464468 525.71044835 1165.87345598 C529.43333331 1165.87078533 533.15617603 1165.87531417 536.87905884 1165.87974548 C539.55128592 1165.87930848 542.22351018 1165.87847464 544.89573669 1165.87715149 C550.73585483 1165.87506774 556.5759628 1165.87673099 562.41607976 1165.88078487 C571.21303667 1165.88687126 580.00998739 1165.88715607 588.80694603 1165.88631957 C603.54702966 1165.88507562 618.28710885 1165.88837863 633.02719116 1165.89442444 C652.95782633 1165.90258481 672.88845388 1165.90452659 692.8190918 1165.90539551 C740.75439544 1165.9106521 788.6896978 1165.92461312 836.625 1165.9375 C943.66875 1165.958125 1050.7125 1165.97875 1161 1166 C1161 818.84 1161 471.68 1161 114 C1099.62 113.67 1038.24 113.34 975 113 C974.67 212.33 974.34 311.66 974 414 C933.73097656 414.06058594 893.46195313 414.12117188 851.97265625 414.18359375 C828.06459754 414.2216469 804.15653933 414.25976733 780.24848282 414.29914629 C766.2324487 414.32222698 752.21641451 414.34526108 738.20038008 414.36815169 C736.5049239 414.37092078 734.80946771 414.37369135 733.11401153 414.37646339 C706.06044638 414.4206834 679.00687751 414.46167327 651.95330481 414.50098413 C624.16058732 414.54138608 596.36787681 414.58504161 568.57517097 414.63282111 C564.65425972 414.63956017 560.73334841 414.64626184 556.81243706 414.65294075 C555.65484124 414.65491434 555.65484124 414.65491434 554.47385965 414.6569278 C542.02545441 414.67805482 529.57704652 414.69572772 517.12863425 414.71212531 C504.62933486 414.72866305 492.13004546 414.7488007 479.63075788 414.77266841 C472.85206742 414.78551139 466.07338487 414.79658723 459.29468536 414.80341911 C453.10002079 414.80969755 446.90538187 414.82049672 440.71073132 414.8350333 C438.45904883 414.83949373 436.20736221 414.84223374 433.95567549 414.84316199 C430.91626695 414.84465584 427.87693423 414.8521766 424.83754063 414.8613348 C423.94494288 414.86031213 423.05234514 414.85928946 422.13269898 414.85823581 C418.25447669 414.49305205 418.25447669 414.49305205 415 416 C414.88995749 418.40287681 414.84504363 420.77763456 414.84178162 423.18153381 C414.83437465 424.32212656 414.83437465 424.32212656 414.82681805 425.48576158 C414.81136706 428.05308678 414.80306199 430.62038683 414.79467773 433.18774414 C414.78510517 435.02038294 414.77509547 436.85301949 414.76467896 438.68565369 C414.7375564 443.67715656 414.71658677 448.66866897 414.69667697 453.66020513 C414.67486259 458.8706101 414.64745173 464.08098546 414.62062073 469.29136658 C414.57063214 479.16528879 414.52571627 489.03922738 414.48259836 498.91318172 C414.43327857 510.15122103 414.378341 521.38923064 414.32291877 532.62724125 C414.20900411 555.75146648 414.10218583 578.87572018 414 602 C415.17995163 601.99962028 416.35990326 601.99924056 417.575611 601.99884933 C469.55350923 601.98218791 521.53140769 601.96675909 573.50930786 601.95765686 C574.68884401 601.95744977 574.68884401 601.95744977 575.89220918 601.95723851 C592.97999814 601.95424592 610.06778713 601.95147569 627.15557616 601.94893467 C635.53486979 601.94768728 643.91416341 601.94639074 652.29345703 601.94506836 C653.12731774 601.9449376 653.96117844 601.94480684 654.82030765 601.94467212 C681.87033887 601.9404073 708.92036801 601.93289341 735.97039797 601.92370278 C763.75723652 601.91427891 791.54407392 601.90811658 819.33091404 601.90608501 C823.25150459 601.90579684 827.17209515 601.9054712 831.0926857 601.90512276 C832.25018038 601.90502162 832.25018038 601.90502162 833.4310588 601.90491844 C845.87555211 601.90373463 858.32004186 601.89909093 870.76453372 601.89316797 C883.26160346 601.88729329 895.75866967 601.88502886 908.25574075 601.88649862 C915.0325345 601.88719439 921.80931714 601.88612308 928.58610916 601.88079453 C934.78020165 601.87595943 940.97427652 601.8756621 947.16836978 601.87910111 C949.41872732 601.87952669 951.66908591 601.87823189 953.91944133 601.87511682 C956.95945347 601.87115064 959.99940057 601.87323804 963.03941154 601.87695217 C963.92938227 601.87432516 964.819353 601.87169814 965.73629254 601.86899152 C971.7717084 601.8858542 971.7717084 601.8858542 974 603 C974 729.06 974 855.12 974 985 C933.73097656 985.06058594 893.46195313 985.12117187 851.97265625 985.18359375 C828.06459754 985.2216469 804.15653933 985.25976733 780.24848282 985.29914629 C766.2324487 985.32222698 752.21641451 985.34526108 738.20038008 985.36815169 C736.5049239 985.37092078 734.80946771 985.37369135 733.11401153 985.37646339 C706.06044638 985.4206834 679.00687751 985.46167327 651.95330481 985.50098413 C624.16058732 985.54138608 596.36787681 985.58504161 568.57517097 985.63282111 C564.65425972 985.63956017 560.73334841 985.64626184 556.81243706 985.65294075 C555.65484124 985.65491434 555.65484124 985.65491434 554.47385965 985.6569278 C542.02545441 985.67805482 529.57704652 985.69572772 517.12863425 985.71212531 C504.62933486 985.72866305 492.13004546 985.7488007 479.63075788 985.77266841 C472.85206742 985.78551139 466.07338487 985.79658723 459.29468536 985.80341911 C453.10002079 985.80969755 446.90538187 985.82049672 440.71073132 985.8350333 C438.45904883 985.83949373 436.20736221 985.84223374 433.95567549 985.84316199 C430.91626695 985.84465584 427.87693423 985.8521766 424.83754063 985.8613348 C423.94494288 985.86031213 423.05234514 985.85928946 422.13269898 985.85823581 C418.25447669 985.49305205 418.25447669 985.49305205 415 987 C414.89803294 988.56367322 414.86601637 990.13195009 414.8613348 991.69893742 C414.85585943 992.72188593 414.85038406 993.74483444 414.84474277 994.79878139 C414.84376559 995.93559384 414.84278841 997.07240629 414.84178162 998.2436676 C414.83438713 1000.03531593 414.83438713 1000.03531593 414.82684326 1001.86315918 C414.81408545 1005.20018532 414.80584508 1008.53716942 414.79942851 1011.87421031 C414.79131924 1015.51988391 414.77744013 1019.16553621 414.76427555 1022.81119442 C414.73956085 1029.89697347 414.71999156 1036.98275756 414.70219031 1044.06855699 C414.68139177 1052.2598724 414.65424351 1060.45115856 414.6270752 1068.64245605 C414.55845707 1090.28245418 414.4985137 1111.9224791 414.4375 1133.5625 C414.293125 1181.886875 414.14875 1230.21125 414 1280 C277.38 1280 140.76 1280 0 1280 C0 857.6 0 435.2 0 0 Z M115 1166 C115 1166.33 115 1166.66 115 1167 C176.38 1167 237.76 1167 301 1167 C301 1166.67 301 1166.34 301 1166 C239.62 1166 178.24 1166 115 1166 Z " fill="#9134ED" transform="translate(2,0)"/>
<path d="M0 0 C0.33 0 0.66 0 1 0 C1 347.16 1 694.32 1 1052 C-213.17 1052 -427.34 1052 -648 1052 C-648 1051.67 -648 1051.34 -648 1051 C-434.16 1051 -220.32 1051 0 1051 C0 704.17 0 357.34 0 0 Z " fill="#9134ED" transform="translate(1162,114)"/>
</svg>
